<svg id="Layer_1" data-name="Layer 1" xmlns="http://www.w3.org/2000/svg" viewBox="0 0 98 90.85"><defs><style>.cls-1,.cls-2{fill:#c5c5c5;}.cls-2{font-size:11.09px;font-family:Helvetica-Bold, Helvetica;font-weight:700;}</style></defs><path class="cls-1" d="M442.9,346.08a22.66,22.66,0,0,0-12.2-3.88v0h-9l-11.29,11.29,0,0h19.7c2,.09,8.24.78,8.24,5.74a4.24,4.24,0,0,1-1.94,3.8,11.88,11.88,0,0,1-6.16,1.72h-33.4l11.26-11.26h0l11.29-11.29,0,0h0l11.26-11.27,0,0H419.4l-11.29,11.29H408l-11.2,11.2h0v.08H351.65L363,364.76h0l33.85,33.85h11.33l-33.86-33.86h22.53V376h0l0,0h0l22.57,22.57h11.33L408.15,376H430.7v0a22.67,22.67,0,0,0,12.16-3.74,15.48,15.48,0,0,0,6.79-13.06A15.75,15.75,0,0,0,442.9,346.08Z" transform="translate(-351.65 -330.87)"/><polygon class="cls-1" points="33.47 20.85 44.43 20.85 44.43 20.87 44.45 20.85 44.46 20.85 44.46 20.85 54.07 11.31 54.1 11.29 44.78 11.29 43.81 11.29 22.57 11.29 33.46 20.85 33.47 20.85"/><polygon class="cls-1" points="22.71 55.16 22.71 67.14 34.7 67.14 22.73 55.17 22.71 55.16"/><text class="cls-2" transform="translate(21.98 85.52)">RHINOLO</text></svg>